# xmcd CD database file
#
# Track frame offsets:
#	150
#	41762
#	82873
#	111735
#	156138
#	185930
#	243849
#	278008
#	308926
#
# Disc length: 4278 seconds
#
# Revision: 0
# Processed by: cddbd v1.5.2PL0 Copyright (c) Steve Scherf et al.
# Submitted via: CDex 1.50
#
DISCID=7910b409
DTITLE=Jan Ptaszyn Wroblewski - Supercalifragilistic
DYEAR=2007
DGENRE=Jazz
TTITLE0=bblluueess
TTITLE1=pokaz doleczki
TTITLE2=well, you needn't
TTITLE3=seans na niepogode
TTITLE4=doxy
TTITLE5=spadek kalorii
TTITLE6=szara koleda
TTITLE7=i hear a rapsody
TTITLE8=schlus blues
EXTD=YEAR: 2007
EXTT0=
EXTT1=
EXTT2=
EXTT3=
EXTT4=
EXTT5=
EXTT6=
EXTT7=
EXTT8=
PLAYORDER=
